<svg xmlns="http://www.w3.org/2000/svg" viewBox="-297 420.9 256 256" xml:space="preserve" width="256" height="256"><path d="m-287.63 452.902 22.625-22.631c12.492-12.495 32.76-12.495 45.253 0l11.288 11.34-67.879 67.892-11.288-11.34c-12.492-12.495-12.492-32.767 0-45.261zm33.913 56.551-11.338 11.34 124.47 124.444a7.903 7.903 0 0 0 11.288 0c3.11-3.111 3.11-8.179 0-11.29l-124.42-124.494Zm56.591-56.551-11.288 11.29 124.47 124.443c3.11 3.111 8.177 3.111 11.287 0 3.11-3.11 3.11-8.179 0-11.29l-124.469-124.443Zm-45.252 45.26 124.469 124.444c6.271 6.323 16.405 6.273 22.626 0 6.221-6.272 6.271-16.408 0-22.63l-124.47-124.444-22.625 22.63Zm123.415 159.218L-41 676.9l-19.516-78.179c-.35.402-.451.853-.802 1.255-3.763 3.763-8.53 6.021-13.697 6.724.201 1.505.452 3.01.452 4.616 0 8.53-3.311 16.56-9.382 22.63-6.07 6.073-14.097 9.384-22.626 9.384-1.656 0-3.311-.25-4.916-.501-.703 5.017-2.509 9.885-6.372 13.698-.401.301-.752.552-1.104.853z" style="fill:#55595c"/></svg>